# xmcd
#
# Track frame offsets: 
#        150
#        3331
#        21737
#        37163
#        60749
#        82151
#        105626
#        118560
#        143286
#        161818
#        184981
#        225173
#        242024
#        287819
#
# Disc length: 4166 seconds
#
# Revision: 0
# Processed by: cddbd v1.5.2PL0 Copyright (c) Steve Scherf et al.
# Submitted via: ExactAudioCopy v1.3
#
DISCID=bd10440e
DTITLE=Mitch Woods - Blues Beyond BordersLive in Istanbul
DYEAR=2012
DGENRE=Blues, Boogie
TTITLE0=Introduction
TTITLE1=Solid Gold Cadillac
TTITLE2=Down Boy Down
TTITLE3=Mojo Mambo
TTITLE4=Boogie Woogie Bar B-Q
TTITLE5=I Got A New Car
TTITLE6=What Can I Do
TTITLE7=Queen Bee
TTITLE8=Crawfishin'
TTITLE9=Long, Lean and Lanky
TTITLE10=Third Degree
TTITLE11=Rocket 88
TTITLE12=In The Night Lambaya Puf De
TTITLE13=House Of Blue Lights
EXTD=
EXTT0=
EXTT1=
EXTT2=
EXTT3=
EXTT4=
EXTT5=
EXTT6=
EXTT7=
EXTT8=
EXTT9=
EXTT10=
EXTT11=
EXTT12=
EXTT13=
PLAYORDER=
